<svg width="128" height="128" viewBox="0 0 128 128" fill="none" xmlns="http://www.w3.org/2000/svg">
<rect x="14" y="14" width="100" height="100" rx="25" fill="#333333"/>
<rect x="52" y="32" width="4" height="4" fill="white"/>
<rect x="56" y="32" width="4" height="4" fill="white"/>
<rect x="60" y="32" width="4" height="4" fill="white"/>
<rect x="64" y="32" width="4" height="4" fill="white"/>
<rect x="68" y="32" width="4" height="4" fill="white"/>
<rect x="72" y="32" width="4" height="4" fill="white"/>
<rect x="52" y="92" width="4" height="4" fill="white"/>
<rect x="56" y="92" width="4" height="4" fill="white"/>
<rect x="60" y="92" width="4" height="4" fill="white"/>
<rect x="64" y="92" width="4" height="4" fill="white"/>
<rect x="68" y="92" width="4" height="4" fill="white"/>
<rect x="72" y="92" width="4" height="4" fill="white"/>
<rect x="52" y="36" width="4" height="4" fill="white"/>
<rect x="48" y="36" width="4" height="4" fill="white"/>
<rect x="44" y="36" width="4" height="4" fill="white"/>
<rect x="56" y="36" width="4" height="4" fill="white"/>
<rect x="60" y="36" width="4" height="4" fill="white"/>
<rect x="64" y="36" width="4" height="4" fill="white"/>
<rect x="68" y="36" width="4" height="4" fill="white"/>
<rect x="72" y="36" width="4" height="4" fill="white"/>
<rect x="76" y="36" width="4" height="4" fill="white"/>
<rect x="80" y="36" width="4" height="4" fill="white"/>
<rect x="52" y="88" width="4" height="4" fill="white"/>
<rect x="48" y="88" width="4" height="4" fill="white"/>
<rect x="44" y="88" width="4" height="4" fill="white"/>
<rect x="56" y="88" width="4" height="4" fill="white"/>
<rect x="60" y="88" width="4" height="4" fill="white"/>
<rect x="64" y="88" width="4" height="4" fill="white"/>
<rect x="68" y="88" width="4" height="4" fill="white"/>
<rect x="72" y="88" width="4" height="4" fill="white"/>
<rect x="76" y="88" width="4" height="4" fill="white"/>
<rect x="80" y="88" width="4" height="4" fill="white"/>
<rect x="52" y="40" width="4" height="4" fill="white"/>
<rect x="48" y="40" width="4" height="4" fill="white"/>
<rect x="44" y="40" width="4" height="4" fill="white"/>
<rect x="56" y="40" width="4" height="4" fill="white"/>
<rect x="60" y="40" width="4" height="4" fill="white"/>
<rect x="64" y="40" width="4" height="4" fill="white"/>
<rect x="68" y="40" width="4" height="4" fill="white"/>
<rect x="72" y="40" width="4" height="4" fill="white"/>
<rect x="76" y="40" width="4" height="4" fill="white"/>
<rect x="80" y="40" width="4" height="4" fill="white"/>
<rect x="84" y="40" width="4" height="4" fill="white"/>
<rect x="40" y="40" width="4" height="4" fill="white"/>
<rect x="52" y="84" width="4" height="4" fill="white"/>
<rect x="48" y="84" width="4" height="4" fill="white"/>
<rect x="44" y="84" width="4" height="4" fill="white"/>
<rect x="56" y="84" width="4" height="4" fill="white"/>
<rect x="60" y="84" width="4" height="4" fill="white"/>
<rect x="64" y="84" width="4" height="4" fill="white"/>
<rect x="68" y="84" width="4" height="4" fill="white"/>
<rect x="72" y="84" width="4" height="4" fill="white"/>
<rect x="76" y="84" width="4" height="4" fill="white"/>
<rect x="80" y="84" width="4" height="4" fill="white"/>
<rect x="84" y="84" width="4" height="4" fill="white"/>
<rect x="40" y="84" width="4" height="4" fill="white"/>
<rect x="52" y="44" width="4" height="4" fill="white"/>
<rect x="48" y="44" width="4" height="4" fill="white"/>
<rect x="44" y="44" width="4" height="4" fill="white"/>
<rect x="56" y="44" width="4" height="4" fill="white"/>
<rect x="60" y="44" width="4" height="4" fill="white"/>
<rect x="64" y="44" width="4" height="4" fill="white"/>
<rect x="68" y="44" width="4" height="4" fill="white"/>
<rect x="72" y="44" width="4" height="4" fill="white"/>
<rect x="76" y="44" width="4" height="4" fill="white"/>
<rect x="80" y="44" width="4" height="4" fill="white"/>
<rect x="84" y="44" width="4" height="4" fill="white"/>
<rect x="40" y="44" width="4" height="4" fill="white"/>
<rect x="36" y="44" width="4" height="4" fill="white"/>
<rect x="88" y="44" width="4" height="4" fill="white"/>
<rect x="52" y="76" width="4" height="4" fill="white"/>
<rect x="48" y="76" width="4" height="4" fill="white"/>
<rect x="44" y="76" width="4" height="4" fill="white"/>
<rect x="56" y="76" width="4" height="4" fill="white"/>
<rect x="60" y="76" width="4" height="4" fill="white"/>
<rect x="64" y="76" width="4" height="4" fill="white"/>
<rect x="68" y="76" width="4" height="4" fill="white"/>
<rect x="72" y="76" width="4" height="4" fill="white"/>
<rect x="76" y="76" width="4" height="4" fill="white"/>
<rect x="80" y="76" width="4" height="4" fill="white"/>
<rect x="84" y="76" width="4" height="4" fill="white"/>
<rect x="40" y="76" width="4" height="4" fill="white"/>
<rect x="36" y="76" width="4" height="4" fill="white"/>
<rect x="88" y="76" width="4" height="4" fill="white"/>
<rect x="52" y="80" width="4" height="4" fill="white"/>
<rect x="48" y="80" width="4" height="4" fill="white"/>
<rect x="44" y="80" width="4" height="4" fill="white"/>
<rect x="56" y="80" width="4" height="4" fill="white"/>
<rect x="60" y="80" width="4" height="4" fill="white"/>
<rect x="64" y="80" width="4" height="4" fill="white"/>
<rect x="68" y="80" width="4" height="4" fill="white"/>
<rect x="72" y="80" width="4" height="4" fill="white"/>
<rect x="76" y="80" width="4" height="4" fill="white"/>
<rect x="80" y="80" width="4" height="4" fill="white"/>
<rect x="84" y="80" width="4" height="4" fill="white"/>
<rect x="40" y="80" width="4" height="4" fill="white"/>
<rect x="36" y="80" width="4" height="4" fill="white"/>
<rect x="88" y="80" width="4" height="4" fill="white"/>
<rect x="52" y="48" width="4" height="4" fill="white"/>
<rect x="48" y="48" width="4" height="4" fill="white"/>
<rect x="44" y="48" width="4" height="4" fill="white"/>
<rect x="56" y="48" width="4" height="4" fill="white"/>
<rect x="60" y="48" width="4" height="4" fill="white"/>
<rect x="64" y="48" width="4" height="4" fill="white"/>
<rect x="68" y="48" width="4" height="4" fill="white"/>
<rect x="72" y="48" width="4" height="4" fill="white"/>
<rect x="76" y="48" width="4" height="4" fill="white"/>
<rect x="80" y="48" width="4" height="4" fill="white"/>
<rect x="84" y="48" width="4" height="4" fill="white"/>
<rect x="40" y="48" width="4" height="4" fill="white"/>
<rect x="36" y="48" width="4" height="4" fill="white"/>
<rect x="88" y="48" width="4" height="4" fill="white"/>
<rect x="52" y="52" width="4" height="4" fill="white"/>
<rect x="48" y="52" width="4" height="4" fill="white"/>
<rect x="44" y="52" width="4" height="4" fill="white"/>
<rect x="56" y="52" width="4" height="4" fill="white"/>
<rect x="60" y="52" width="4" height="4" fill="white"/>
<rect x="64" y="52" width="4" height="4" fill="white"/>
<rect x="68" y="52" width="4" height="4" fill="white"/>
<rect x="72" y="52" width="4" height="4" fill="white"/>
<rect x="76" y="52" width="4" height="4" fill="white"/>
<rect x="80" y="52" width="4" height="4" fill="white"/>
<rect x="84" y="52" width="4" height="4" fill="white"/>
<rect x="40" y="52" width="4" height="4" fill="white"/>
<rect x="36" y="52" width="4" height="4" fill="white"/>
<rect x="88" y="52" width="4" height="4" fill="white"/>
<rect x="92" y="52" width="4" height="4" fill="white"/>
<rect x="32" y="52" width="4" height="4" fill="white"/>
<rect x="52" y="56" width="4" height="4" fill="white"/>
<rect x="48" y="56" width="4" height="4" fill="white"/>
<rect x="44" y="56" width="4" height="4" fill="white"/>
<rect x="56" y="56" width="4" height="4" fill="white"/>
<rect x="60" y="56" width="4" height="4" fill="white"/>
<rect x="64" y="56" width="4" height="4" fill="white"/>
<rect x="68" y="56" width="4" height="4" fill="white"/>
<rect x="72" y="56" width="4" height="4" fill="white"/>
<rect x="76" y="56" width="4" height="4" fill="white"/>
<rect x="80" y="56" width="4" height="4" fill="white"/>
<rect x="84" y="56" width="4" height="4" fill="white"/>
<rect x="40" y="56" width="4" height="4" fill="white"/>
<rect x="36" y="56" width="4" height="4" fill="white"/>
<rect x="88" y="56" width="4" height="4" fill="white"/>
<rect x="92" y="56" width="4" height="4" fill="white"/>
<rect x="32" y="56" width="4" height="4" fill="white"/>
<rect x="52" y="60" width="4" height="4" fill="white"/>
<rect x="48" y="60" width="4" height="4" fill="white"/>
<rect x="44" y="60" width="4" height="4" fill="white"/>
<rect x="56" y="60" width="4" height="4" fill="white"/>
<rect x="60" y="60" width="4" height="4" fill="white"/>
<rect x="64" y="60" width="4" height="4" fill="white"/>
<rect x="68" y="60" width="4" height="4" fill="white"/>
<rect x="72" y="60" width="4" height="4" fill="white"/>
<rect x="76" y="60" width="4" height="4" fill="white"/>
<rect x="80" y="60" width="4" height="4" fill="white"/>
<rect x="84" y="60" width="4" height="4" fill="white"/>
<rect x="40" y="60" width="4" height="4" fill="white"/>
<rect x="36" y="60" width="4" height="4" fill="white"/>
<rect x="88" y="60" width="4" height="4" fill="white"/>
<rect x="92" y="60" width="4" height="4" fill="white"/>
<rect x="32" y="60" width="4" height="4" fill="white"/>
<rect x="52" y="64" width="4" height="4" fill="white"/>
<rect x="48" y="64" width="4" height="4" fill="white"/>
<rect x="44" y="64" width="4" height="4" fill="white"/>
<rect x="56" y="64" width="4" height="4" fill="white"/>
<rect x="60" y="64" width="4" height="4" fill="white"/>
<rect x="64" y="64" width="4" height="4" fill="white"/>
<rect x="68" y="64" width="4" height="4" fill="white"/>
<rect x="72" y="64" width="4" height="4" fill="white"/>
<rect x="76" y="64" width="4" height="4" fill="white"/>
<rect x="80" y="64" width="4" height="4" fill="white"/>
<rect x="84" y="64" width="4" height="4" fill="white"/>
<rect x="40" y="64" width="4" height="4" fill="white"/>
<rect x="36" y="64" width="4" height="4" fill="white"/>
<rect x="88" y="64" width="4" height="4" fill="white"/>
<rect x="92" y="64" width="4" height="4" fill="white"/>
<rect x="32" y="64" width="4" height="4" fill="white"/>
<rect x="52" y="68" width="4" height="4" fill="white"/>
<rect x="48" y="68" width="4" height="4" fill="white"/>
<rect x="44" y="68" width="4" height="4" fill="white"/>
<rect x="56" y="68" width="4" height="4" fill="white"/>
<rect x="60" y="68" width="4" height="4" fill="white"/>
<rect x="64" y="68" width="4" height="4" fill="white"/>
<rect x="68" y="68" width="4" height="4" fill="white"/>
<rect x="72" y="68" width="4" height="4" fill="white"/>
<rect x="76" y="68" width="4" height="4" fill="white"/>
<rect x="80" y="68" width="4" height="4" fill="white"/>
<rect x="84" y="68" width="4" height="4" fill="white"/>
<rect x="40" y="68" width="4" height="4" fill="white"/>
<rect x="36" y="68" width="4" height="4" fill="white"/>
<rect x="88" y="68" width="4" height="4" fill="white"/>
<rect x="92" y="68" width="4" height="4" fill="white"/>
<rect x="32" y="68" width="4" height="4" fill="white"/>
<rect x="52" y="72" width="4" height="4" fill="white"/>
<rect x="48" y="72" width="4" height="4" fill="white"/>
<rect x="44" y="72" width="4" height="4" fill="white"/>
<rect x="56" y="72" width="4" height="4" fill="white"/>
<rect x="60" y="72" width="4" height="4" fill="white"/>
<rect x="64" y="72" width="4" height="4" fill="white"/>
<rect x="68" y="72" width="4" height="4" fill="white"/>
<rect x="72" y="72" width="4" height="4" fill="white"/>
<rect x="76" y="72" width="4" height="4" fill="white"/>
<rect x="80" y="72" width="4" height="4" fill="white"/>
<rect x="84" y="72" width="4" height="4" fill="white"/>
<rect x="40" y="72" width="4" height="4" fill="white"/>
<rect x="36" y="72" width="4" height="4" fill="white"/>
<rect x="88" y="72" width="4" height="4" fill="white"/>
<rect x="92" y="72" width="4" height="4" fill="white"/>
<rect x="32" y="72" width="4" height="4" fill="white"/>
</svg>
